<svg width="22" height="26" viewBox="0 0 22 26" fill="none" xmlns="http://www.w3.org/2000/svg">
<path d="M18 8.83332H20.3333C20.6428 8.83332 20.9395 8.95624 21.1583 9.17503C21.3771 9.39382 21.5 9.69057 21.5 9.99999V24C21.5 24.3094 21.3771 24.6062 21.1583 24.8249C20.9395 25.0437 20.6428 25.1667 20.3333 25.1667H1.66667C1.35725 25.1667 1.0605 25.0437 0.841709 24.8249C0.622916 24.6062 0.5 24.3094 0.5 24V9.99999C0.5 9.69057 0.622916 9.39382 0.841709 9.17503C1.0605 8.95624 1.35725 8.83332 1.66667 8.83332H4V7.66666C4 5.81014 4.7375 4.02966 6.05025 2.71691C7.36301 1.40415 9.14348 0.666656 11 0.666656C12.8565 0.666656 14.637 1.40415 15.9497 2.71691C17.2625 4.02966 18 5.81014 18 7.66666V8.83332ZM2.83333 11.1667V22.8333H19.1667V11.1667H2.83333ZM9.83333 15.8333H12.1667V18.1667H9.83333V15.8333ZM5.16667 15.8333H7.5V18.1667H5.16667V15.8333ZM14.5 15.8333H16.8333V18.1667H14.5V15.8333ZM15.6667 8.83332V7.66666C15.6667 6.42898 15.175 5.24199 14.2998 4.36682C13.4247 3.49165 12.2377 2.99999 11 2.99999C9.76232 2.99999 8.57534 3.49165 7.70017 4.36682C6.825 5.24199 6.33333 6.42898 6.33333 7.66666V8.83332H15.6667Z" fill="white"/>
</svg>
