<svg width="24" height="25" viewBox="0 0 24 25" fill="none" xmlns="http://www.w3.org/2000/svg">
<path d="M22.8282 20.3625C22.2387 18.9662 21.3832 17.6978 20.3095 16.6281C19.2389 15.5553 17.9708 14.7 16.5751 14.1094C16.5626 14.1031 16.5501 14.1 16.5376 14.0938C18.4845 12.6875 19.7501 10.3969 19.7501 7.8125C19.7501 3.53125 16.2813 0.0625 12.0001 0.0625C7.71883 0.0625 4.25008 3.53125 4.25008 7.8125C4.25008 10.3969 5.5157 12.6875 7.46258 14.0969C7.45008 14.1031 7.43758 14.1062 7.42508 14.1125C6.02508 14.7031 4.76883 15.55 3.6907 16.6313C2.61792 17.7018 1.76259 18.9699 1.17195 20.3656C0.59171 21.732 0.278772 23.197 0.250078 24.6812C0.249244 24.7146 0.255094 24.7478 0.267284 24.7788C0.279474 24.8099 0.297756 24.8382 0.321054 24.8621C0.344353 24.886 0.372195 24.9049 0.402941 24.9179C0.433687 24.9308 0.466715 24.9375 0.500078 24.9375H2.37508C2.51258 24.9375 2.62195 24.8281 2.62508 24.6938C2.68758 22.2813 3.65633 20.0219 5.36883 18.3094C7.1407 16.5375 9.49383 15.5625 12.0001 15.5625C14.5063 15.5625 16.8595 16.5375 18.6313 18.3094C20.3438 20.0219 21.3126 22.2813 21.3751 24.6938C21.3782 24.8313 21.4876 24.9375 21.6251 24.9375H23.5001C23.5334 24.9375 23.5665 24.9308 23.5972 24.9179C23.628 24.9049 23.6558 24.886 23.6791 24.8621C23.7024 24.8382 23.7207 24.8099 23.7329 24.7788C23.7451 24.7478 23.7509 24.7146 23.7501 24.6812C23.7188 23.1875 23.4095 21.7344 22.8282 20.3625V20.3625ZM12.0001 13.1875C10.5657 13.1875 9.2157 12.6281 8.20008 11.6125C7.18445 10.5969 6.62508 9.24688 6.62508 7.8125C6.62508 6.37812 7.18445 5.02812 8.20008 4.0125C9.2157 2.99687 10.5657 2.4375 12.0001 2.4375C13.4345 2.4375 14.7845 2.99687 15.8001 4.0125C16.8157 5.02812 17.3751 6.37812 17.3751 7.8125C17.3751 9.24688 16.8157 10.5969 15.8001 11.6125C14.7845 12.6281 13.4345 13.1875 12.0001 13.1875Z" fill="white"/>
</svg>
