<svg width="200" height="64" viewBox="0 0 200 64" fill="none" xmlns="http://www.w3.org/2000/svg">
<path d="M24.2371 7.62939e-06C29.0139 7.62939e-06 33.0282 0.431649 36.2799 1.29493C39.5316 2.15822 42.1502 3.36681 44.1357 4.92072C46.1501 6.44586 47.5889 8.28753 48.4522 10.4457C49.3442 12.5752 49.7902 14.9204 49.7902 17.4815C49.7902 19.8987 49.3874 22.2583 48.5816 24.5604C47.7759 26.8625 46.3659 28.92 44.3516 30.7329C42.366 32.5458 39.6898 33.999 36.323 35.0925C32.985 36.186 28.7693 36.7327 23.6759 36.7327H17.7193V59.2644H26.7837V62.7175H0.669434V59.2644H9.30226V3.45314H0.669434V7.62939e-06H24.2371ZM17.7193 33.2796H23.0285C26.3377 33.2796 29.1146 33.035 31.3591 32.5458C33.6325 32.0278 35.4454 31.1645 36.7978 29.9559C38.1503 28.7473 39.1143 27.1503 39.6898 25.1647C40.2941 23.1504 40.5963 20.6469 40.5963 17.6541C40.5963 15.1794 40.3661 13.05 39.9056 11.2659C39.474 9.48173 38.6395 8.01415 37.4021 6.86311C36.1648 5.68329 34.4382 4.82001 32.2224 4.27326C30.0354 3.72652 27.201 3.45314 23.7191 3.45314H17.7193V33.2796Z" fill="white"/>
<path d="M76.552 62.7175H55.4016V59.2644H61.8762V29.3948H55.4016V25.9417H69.6457V32.6321H69.8184C70.3364 31.5098 70.9694 30.4883 71.7176 29.5675C72.4946 28.6178 73.3435 27.7977 74.2643 27.1071C75.1851 26.4165 76.1635 25.8841 77.1995 25.51C78.2354 25.1359 79.2857 24.9489 80.3505 24.9489C82.077 24.9489 83.5014 25.4525 84.6237 26.4596C85.746 27.4668 86.3071 28.8624 86.3071 30.6466C86.3071 32.2292 85.8755 33.4666 85.0122 34.3587C84.1489 35.222 83.0266 35.6536 81.6454 35.6536C80.2066 35.6536 79.0987 35.2363 78.3217 34.4018C77.5736 33.5673 77.1995 32.517 77.1995 31.2509C77.1995 30.589 77.329 29.8696 77.5879 29.0926C76.4657 29.4955 75.4154 30.143 74.437 31.035C73.4874 31.8983 72.6528 32.9918 71.9334 34.3155C71.214 35.6392 70.6529 37.1787 70.25 38.9341C69.8472 40.6606 69.6457 42.5886 69.6457 44.7181V59.2644H76.552V62.7175Z" fill="white"/>
<path d="M103.4 59.2644H109.875V62.7175H89.1559V59.2644H95.6306V29.3948H89.1559V25.9417H103.4V59.2644ZM99.5153 13.7694C98.7672 13.7694 98.0765 13.6543 97.4435 13.4241C96.8392 13.1651 96.2924 12.8054 95.8032 12.345C95.3428 11.8845 94.9831 11.3522 94.7241 10.7479C94.4651 10.1148 94.3356 9.4098 94.3356 8.63284C94.3356 7.88466 94.4651 7.19403 94.7241 6.56096C95.0119 5.92789 95.386 5.38114 95.8464 4.92072C96.3068 4.46031 96.8535 4.1006 97.4866 3.84162C98.1197 3.58264 98.7959 3.45314 99.5153 3.45314C100.235 3.45314 100.911 3.58264 101.544 3.84162C102.177 4.07183 102.724 4.41714 103.184 4.87756C103.673 5.33798 104.048 5.88472 104.307 6.5178C104.566 7.12209 104.695 7.81272 104.695 8.58968C104.695 9.36663 104.551 10.0716 104.263 10.7047C104.004 11.3378 103.645 11.8845 103.184 12.345C102.724 12.7766 102.177 13.1219 101.544 13.3809C100.911 13.6399 100.235 13.7694 99.5153 13.7694Z" fill="white"/>
<path d="M124.292 44.4159C124.292 47.6964 124.522 50.387 124.982 52.4876C125.443 54.5595 126.09 56.1997 126.925 57.4083C127.759 58.5882 128.752 59.4083 129.903 59.8687C131.083 60.3003 132.363 60.5162 133.745 60.5162C135.931 60.5162 137.716 60.0413 139.097 59.0917C140.507 58.1421 141.615 56.8904 142.421 55.3365C143.255 53.7825 143.831 52.0272 144.147 50.0704C144.464 48.0849 144.622 46.0706 144.622 44.0274C144.622 41.0923 144.349 38.6175 143.802 36.6032C143.284 34.5601 142.55 32.9199 141.6 31.6825C140.651 30.4451 139.514 29.5531 138.19 29.0063C136.895 28.4596 135.471 28.1862 133.917 28.1862C132.536 28.1862 131.255 28.402 130.076 28.8337C128.896 29.2653 127.874 30.0854 127.011 31.294C126.148 32.4738 125.471 34.1141 124.982 36.2147C124.522 38.3154 124.292 41.0491 124.292 44.4159ZM152.391 59.2644H158.866V62.7175H144.622V57.4947H144.449C143.701 58.732 142.881 59.768 141.989 60.6025C141.126 61.4082 140.205 62.0701 139.226 62.588C138.248 63.0772 137.226 63.4225 136.162 63.624C135.097 63.8254 134.018 63.9261 132.924 63.9261C130.191 63.9261 127.759 63.4225 125.63 62.4154C123.5 61.3794 121.702 59.9982 120.234 58.2716C118.767 56.5163 117.644 54.4732 116.867 52.1423C116.119 49.8114 115.745 47.3223 115.745 44.6749C115.745 41.9124 116.162 39.3226 116.997 36.9054C117.831 34.4594 119.011 32.3444 120.536 30.5602C122.09 28.7761 123.932 27.3661 126.061 26.3301C128.219 25.2942 130.608 24.7762 133.227 24.7762C135.759 24.7762 137.975 25.3086 139.874 26.3733C141.773 27.4092 143.298 28.8768 144.449 30.7761H144.622V3.45314H137.716V7.62939e-06H152.391V59.2644Z" fill="white"/>
<path d="M198.793 51.02C197.872 55.1926 196.088 58.3867 193.441 60.6025C190.793 62.8182 187.354 63.9261 183.124 63.9261C180.218 63.9261 177.628 63.4225 175.355 62.4154C173.081 61.3794 171.153 59.9838 169.571 58.2285C167.988 56.4731 166.779 54.43 165.945 52.0991C165.11 49.7395 164.693 47.236 164.693 44.5886C164.693 41.8836 165.125 39.3226 165.988 36.9054C166.851 34.4882 168.074 32.3875 169.657 30.6034C171.269 28.8193 173.182 27.4092 175.398 26.3733C177.642 25.3086 180.146 24.7762 182.908 24.7762C185.441 24.7762 187.714 25.2223 189.728 26.1143C191.743 27.0064 193.455 28.2581 194.865 29.8696C196.275 31.4523 197.354 33.3515 198.102 35.5673C198.879 37.783 199.296 40.2146 199.354 42.862H173.326C173.297 43.3512 173.283 43.6821 173.283 43.8548C173.283 43.9987 173.283 44.085 173.283 44.1138C173.283 47.5094 173.527 50.2719 174.017 52.4013C174.535 54.5307 175.24 56.1997 176.132 57.4083C177.053 58.5882 178.132 59.3939 179.369 59.8255C180.635 60.2572 182.031 60.473 183.556 60.473C184.966 60.473 186.29 60.2859 187.527 59.9119C188.793 59.5378 189.93 58.9479 190.937 58.1421C191.944 57.3076 192.822 56.2429 193.57 54.948C194.347 53.6243 194.966 52.0416 195.426 50.1999C196.002 50.2575 196.577 50.3582 197.153 50.5021C197.728 50.646 198.275 50.8186 198.793 51.02ZM190.635 39.4952C190.549 37.1068 190.29 35.1788 189.858 33.7112C189.455 32.2149 188.908 31.0494 188.218 30.2149C187.527 29.3804 186.707 28.8193 185.757 28.5315C184.836 28.215 183.815 28.0567 182.693 28.0567C181.513 28.0567 180.405 28.2294 179.369 28.5747C178.362 28.92 177.455 29.5243 176.65 30.3876C175.844 31.2509 175.168 32.4163 174.621 33.8839C174.103 35.3515 173.743 37.2219 173.542 39.4952H190.635Z" fill="white"/>
</svg>
